<svg xmlns="http://www.w3.org/2000/svg" width="159" height="30" viewBox="0 0 159 30">
  <g fill="none">
    <polygon fill="#EA684A" points="5.349 8.162 5.349 9.76 14.474 9.76 15.056 8.162"/>
    <polygon fill="#E9A353" points="29.773 9.76 29.773 8.162 20.16 8.162 19.578 9.76"/>
    <polygon fill="#E9A353" points="24.888 13.785 24.888 12.188 18.695 12.188 18.112 13.785"/>
    <polygon fill="#EA684A" points=".464 12.188 .464 13.785 13.009 13.785 13.59 12.188"/>
    <polygon fill="#EA684A" points="4.904 16.213 4.904 17.812 11.543 17.812 12.125 16.213"/>
    <polygon fill="#E9A353" points="29.773 17.812 29.773 16.213 17.229 16.213 16.648 17.812"/>
    <polygon fill="#E9A353" points="24.888 21.838 24.888 20.24 15.764 20.24 15.182 21.838"/>
    <polygon fill="#EA684A" points=".464 20.24 .464 21.838 10.078 21.838 10.66 20.24"/>
    <path fill="#FFF" d="M22.304,1.101 C20.853,0.572 19.186,1.49 18.582,3.148 L16.757,8.162 L16.175,9.76 L15.291,12.187 L14.709,13.785 L13.825,16.213 L13.243,17.812 L12.36,20.241 L11.778,21.839 L10.152,26.307 C9.856,27.119 9.09,27.62 8.479,27.399 C8.13,27.271 7.895,26.931 7.811,26.513 C8.186,26.421 8.508,26.149 8.65,25.759 C8.877,25.136 8.556,24.448 7.934,24.221 C7.311,23.995 6.623,24.318 6.397,24.939 C5.793,26.598 6.48,28.373 7.933,28.902 C9.384,29.429 11.051,28.513 11.655,26.852 L13.48,21.839 L14.062,20.241 L14.946,17.812 L15.528,16.213 L16.412,13.785 L16.994,12.187 L17.876,9.76 L18.458,8.162 L20.084,3.695 C20.379,2.881 21.146,2.381 21.757,2.602 C22.105,2.729 22.34,3.069 22.424,3.488 C22.05,3.58 21.727,3.852 21.586,4.242 C21.359,4.864 21.679,5.552 22.302,5.779 C22.925,6.006 23.613,5.684 23.839,5.063 C24.444,3.403 23.756,1.629 22.304,1.101 Z"/>
    <g fill="#FFF" transform="translate(35 8)">
      <path d="M.359 11.781L1.338 10.52C2.219 11.499 3.659 12.42 5.539 12.42 7.92 12.42 8.68 11.14 8.68 10.12 8.68 6.679.779 8.579.779 3.818.779 1.618 2.739.117 5.36.117 7.4.117 8.98.798 10.101 1.977L9.1 3.199C8.1 2.098 6.7 1.598 5.24 1.598 3.639 1.598 2.499 2.458 2.499 3.719 2.499 6.719 10.401 4.999 10.401 9.98 10.401 11.92 9.081 13.901 5.48 13.901 3.159 13.901 1.458 13.021.359 11.781zM12.838 7C12.838 3.06 15.499.099 19.46.099 23.4.099 26.081 3.06 26.081 7 26.081 10.94 23.4 13.901 19.46 13.901 15.5 13.901 12.838 10.94 12.838 7zM24.361 7C24.361 3.879 22.441 1.579 19.461 1.579 16.46 1.579 14.56 3.879 14.56 7 14.56 10.101 16.46 12.421 19.461 12.421 22.441 12.421 24.361 10.101 24.361 7zM29.179 8.48L29.179.318 30.839.318 30.839 8.439C30.839 10.88 32.159 12.42 34.619 12.42 37.08 12.42 38.4 10.88 38.4 8.439L38.4.318 40.06.318 40.06 8.46C40.06 11.781 38.24 13.901 34.619 13.901 31 13.901 29.179 11.761 29.179 8.48z"/>
      <polygon points="53.121 13.661 45.34 3.02 45.34 13.662 43.679 13.662 43.679 .318 45.379 .318 53.061 10.74 53.061 .318 54.721 .318 54.721 13.661"/>
      <path d="M58.338 13.661L58.338.318 62.899.318C67.042.318 69.741 3.218 69.741 7 69.741 10.801 67.042 13.661 62.899 13.661L58.338 13.661zM68.02 7C68.02 4.119 66.2 1.799 62.899 1.799L59.999 1.799 59.999 12.181 62.899 12.181C66.141 12.181 68.02 9.86 68.02 7zM72.039 11.781L73.018 10.52C73.899 11.499 75.34 12.42 77.219 12.42 79.6 12.42 80.36 11.14 80.36 10.12 80.36 6.679 72.46 8.579 72.46 3.818 72.46 1.618 74.419.117 77.04.117 79.081.117 80.661.798 81.782 1.977L80.78 3.198C79.78 2.097 78.38 1.597 76.921 1.597 75.319 1.597 74.179 2.457 74.179 3.718 74.179 6.718 82.081 4.998 82.081 9.979 82.081 11.919 80.761 13.9 77.161 13.9 74.838 13.901 73.139 13.021 72.039 11.781z"/>
      <polygon points="85.059 13.661 85.059 .318 86.719 .318 86.719 12.18 92.92 12.18 92.92 13.66 85.059 13.66"/>
      <polygon points="95.758 13.661 95.758 .318 97.418 .318 97.418 13.661"/>
      <path d="M100.498,7 C100.498,2.899 103.519,0.099 107.359,0.099 C109.72,0.099 111.361,1.239 112.42,2.74 L111.02,3.52 C110.26,2.4 108.881,1.58 107.36,1.58 C104.44,1.58 102.219,3.82 102.219,7.001 C102.219,10.161 104.44,12.422 107.36,12.422 C108.881,12.422 110.26,11.622 111.02,10.482 L112.442,11.262 C111.321,12.783 109.721,13.903 107.36,13.903 C103.52,13.901 100.498,11.101 100.498,7 Z"/>
      <polygon points="115.059 13.661 115.059 .318 123.799 .318 123.799 1.798 116.719 1.798 116.719 6.1 123.66 6.1 123.66 7.58 116.719 7.58 116.719 12.181 123.799 12.181 123.799 13.661"/>
    </g>
  </g>
</svg>
